<?xml version="1.0" standalone="no"?><!DOCTYPE svg PUBLIC "-//W3C//DTD SVG 1.1//EN" "http://www.w3.org/Graphics/SVG/1.1/DTD/svg11.dtd"><svg t="1499231748216" class="icon" style="" viewBox="0 0 1024 1024" version="1.1" xmlns="http://www.w3.org/2000/svg" p-id="2072" xmlns:xlink="http://www.w3.org/1999/xlink" width="128" height="128"><defs><style type="text/css"></style></defs><path d="M510.058 62.868c-246.76 0-446.798 200.038-446.798 446.798s200.038 446.799 446.798 446.799c246.759 0 446.798-200.04 446.798-446.799S756.817 62.868 510.058 62.868z m309.414 316.883L445.855 752.82c-7.626 7.622-17.613 11.419-27.59 11.419-9.979 0-19.965-3.797-27.593-11.419L217.695 580.093c-15.263-15.236-15.279-39.954-0.044-55.213 15.236-15.254 39.962-15.272 55.216-0.036l145.398 145.182 346.036-345.525c15.254-15.252 39.971-15.227 55.217 0.036 15.231 15.26 15.217 39.98-0.046 55.214z" p-id="2073" fill="#d81e06"></path></svg>